<mxfile host="app.diagrams.net" agent="Mozilla/5.0 (Macintosh; Intel Mac OS X 10_15_7) AppleWebKit/605.1.15 (KHTML, like Gecko) Version/17.1 Safari/605.1.15" version="24.7.14">
  <diagram id="C5RBs43oDa-KdzZeNtuy" name="Page-1">
    <mxGraphModel dx="954" dy="-547" grid="1" gridSize="10" guides="1" tooltips="1" connect="1" arrows="1" fold="1" page="1" pageScale="1" pageWidth="827" pageHeight="1169" math="0" shadow="0">
      <root>
        <mxCell id="WIyWlLk6GJQsqaUBKTNV-0" />
        <mxCell id="WIyWlLk6GJQsqaUBKTNV-1" parent="WIyWlLk6GJQsqaUBKTNV-0" />
        <mxCell id="w8STW4bb3QN4_T52BafJ-17" value="a" style="rhombus;strokeWidth=2;whiteSpace=wrap;" vertex="1" parent="WIyWlLk6GJQsqaUBKTNV-1">
          <mxGeometry x="220" y="1270.5" width="57" height="57" as="geometry" />
        </mxCell>
        <mxCell id="w8STW4bb3QN4_T52BafJ-18" value="b" style="rhombus;strokeWidth=2;whiteSpace=wrap;" vertex="1" parent="WIyWlLk6GJQsqaUBKTNV-1">
          <mxGeometry x="364" y="1210" width="58" height="58" as="geometry" />
        </mxCell>
        <mxCell id="w8STW4bb3QN4_T52BafJ-19" value="c" style="rhombus;strokeWidth=2;whiteSpace=wrap;" vertex="1" parent="WIyWlLk6GJQsqaUBKTNV-1">
          <mxGeometry x="364" y="1326" width="57" height="57" as="geometry" />
        </mxCell>
        <mxCell id="w8STW4bb3QN4_T52BafJ-20" value="d = 1" style="rounded=1;arcSize=40;strokeWidth=2" vertex="1" parent="WIyWlLk6GJQsqaUBKTNV-1">
          <mxGeometry x="544" y="1214.5" width="65" height="49" as="geometry" />
        </mxCell>
        <mxCell id="w8STW4bb3QN4_T52BafJ-21" value="d = 2" style="rounded=1;arcSize=40;strokeWidth=2" vertex="1" parent="WIyWlLk6GJQsqaUBKTNV-1">
          <mxGeometry x="544" y="1330" width="65" height="49" as="geometry" />
        </mxCell>
        <mxCell id="w8STW4bb3QN4_T52BafJ-22" value="return d" style="rounded=1;arcSize=40;strokeWidth=2" vertex="1" parent="WIyWlLk6GJQsqaUBKTNV-1">
          <mxGeometry x="624" y="1274.5" width="89" height="49" as="geometry" />
        </mxCell>
        <mxCell id="w8STW4bb3QN4_T52BafJ-33" value="" style="edgeStyle=elbowEdgeStyle;elbow=horizontal;endArrow=classic;html=1;curved=0;rounded=0;endSize=8;startSize=8;exitX=0.5;exitY=1;exitDx=0;exitDy=0;entryX=0;entryY=0.5;entryDx=0;entryDy=0;" edge="1" parent="WIyWlLk6GJQsqaUBKTNV-1" source="w8STW4bb3QN4_T52BafJ-17" target="w8STW4bb3QN4_T52BafJ-19">
          <mxGeometry width="50" height="50" relative="1" as="geometry">
            <mxPoint x="334" y="1276" as="sourcePoint" />
            <mxPoint x="384" y="1226" as="targetPoint" />
            <Array as="points">
              <mxPoint x="249" y="1356" />
            </Array>
          </mxGeometry>
        </mxCell>
        <mxCell id="w8STW4bb3QN4_T52BafJ-34" value="True" style="text;strokeColor=none;align=center;fillColor=none;html=1;verticalAlign=middle;whiteSpace=wrap;rounded=0;" vertex="1" parent="WIyWlLk6GJQsqaUBKTNV-1">
          <mxGeometry x="264" y="1210" width="60" height="30" as="geometry" />
        </mxCell>
        <mxCell id="w8STW4bb3QN4_T52BafJ-35" value="" style="edgeStyle=elbowEdgeStyle;elbow=horizontal;endArrow=classic;html=1;curved=0;rounded=0;endSize=8;startSize=8;exitX=0.5;exitY=0;exitDx=0;exitDy=0;" edge="1" parent="WIyWlLk6GJQsqaUBKTNV-1" source="w8STW4bb3QN4_T52BafJ-17" target="w8STW4bb3QN4_T52BafJ-18">
          <mxGeometry width="50" height="50" relative="1" as="geometry">
            <mxPoint x="248.5" y="1274.5" as="sourcePoint" />
            <mxPoint x="364" y="1302" as="targetPoint" />
            <Array as="points">
              <mxPoint x="249" y="1303" />
            </Array>
          </mxGeometry>
        </mxCell>
        <mxCell id="w8STW4bb3QN4_T52BafJ-36" value="False" style="text;strokeColor=none;align=center;fillColor=none;html=1;verticalAlign=middle;whiteSpace=wrap;rounded=0;" vertex="1" parent="WIyWlLk6GJQsqaUBKTNV-1">
          <mxGeometry x="264" y="1323.5" width="60" height="30" as="geometry" />
        </mxCell>
        <mxCell id="w8STW4bb3QN4_T52BafJ-38" value="" style="endArrow=classic;html=1;rounded=0;exitX=0.5;exitY=1;exitDx=0;exitDy=0;entryX=0.5;entryY=0;entryDx=0;entryDy=0;" edge="1" parent="WIyWlLk6GJQsqaUBKTNV-1" source="w8STW4bb3QN4_T52BafJ-18" target="w8STW4bb3QN4_T52BafJ-19">
          <mxGeometry width="50" height="50" relative="1" as="geometry">
            <mxPoint x="334" y="1276" as="sourcePoint" />
            <mxPoint x="384" y="1226" as="targetPoint" />
          </mxGeometry>
        </mxCell>
        <mxCell id="w8STW4bb3QN4_T52BafJ-40" value="False" style="text;strokeColor=none;align=center;fillColor=none;html=1;verticalAlign=middle;whiteSpace=wrap;rounded=0;" vertex="1" parent="WIyWlLk6GJQsqaUBKTNV-1">
          <mxGeometry x="361" y="1279" width="60" height="30" as="geometry" />
        </mxCell>
        <mxCell id="w8STW4bb3QN4_T52BafJ-41" value="" style="endArrow=classic;html=1;rounded=0;exitX=1;exitY=0.5;exitDx=0;exitDy=0;entryX=0;entryY=0.5;entryDx=0;entryDy=0;" edge="1" parent="WIyWlLk6GJQsqaUBKTNV-1" source="w8STW4bb3QN4_T52BafJ-18" target="w8STW4bb3QN4_T52BafJ-20">
          <mxGeometry width="50" height="50" relative="1" as="geometry">
            <mxPoint x="334" y="1280" as="sourcePoint" />
            <mxPoint x="384" y="1230" as="targetPoint" />
          </mxGeometry>
        </mxCell>
        <mxCell id="w8STW4bb3QN4_T52BafJ-42" value="True" style="text;strokeColor=none;align=center;fillColor=none;html=1;verticalAlign=middle;whiteSpace=wrap;rounded=0;" vertex="1" parent="WIyWlLk6GJQsqaUBKTNV-1">
          <mxGeometry x="464" y="1210" width="60" height="30" as="geometry" />
        </mxCell>
        <mxCell id="w8STW4bb3QN4_T52BafJ-43" value="" style="endArrow=classic;html=1;rounded=0;exitX=1;exitY=0.5;exitDx=0;exitDy=0;entryX=0;entryY=0.5;entryDx=0;entryDy=0;" edge="1" parent="WIyWlLk6GJQsqaUBKTNV-1" source="w8STW4bb3QN4_T52BafJ-19" target="w8STW4bb3QN4_T52BafJ-21">
          <mxGeometry width="50" height="50" relative="1" as="geometry">
            <mxPoint x="464" y="1353.5" as="sourcePoint" />
            <mxPoint x="702" y="1353.5" as="targetPoint" />
          </mxGeometry>
        </mxCell>
        <mxCell id="w8STW4bb3QN4_T52BafJ-44" value="" style="endArrow=classic;html=1;rounded=0;exitX=1;exitY=0.5;exitDx=0;exitDy=0;entryX=0.123;entryY=0.867;entryDx=0;entryDy=0;entryPerimeter=0;" edge="1" parent="WIyWlLk6GJQsqaUBKTNV-1" source="w8STW4bb3QN4_T52BafJ-19" target="w8STW4bb3QN4_T52BafJ-20">
          <mxGeometry width="50" height="50" relative="1" as="geometry">
            <mxPoint x="334" y="1276" as="sourcePoint" />
            <mxPoint x="544" y="1260" as="targetPoint" />
          </mxGeometry>
        </mxCell>
        <mxCell id="w8STW4bb3QN4_T52BafJ-45" value="True" style="text;strokeColor=none;align=center;fillColor=none;html=1;verticalAlign=middle;whiteSpace=wrap;rounded=0;" vertex="1" parent="WIyWlLk6GJQsqaUBKTNV-1">
          <mxGeometry x="444" y="1269.5" width="60" height="30" as="geometry" />
        </mxCell>
        <mxCell id="w8STW4bb3QN4_T52BafJ-46" value="False" style="text;strokeColor=none;align=center;fillColor=none;html=1;verticalAlign=middle;whiteSpace=wrap;rounded=0;" vertex="1" parent="WIyWlLk6GJQsqaUBKTNV-1">
          <mxGeometry x="454" y="1323.5" width="60" height="30" as="geometry" />
        </mxCell>
        <mxCell id="w8STW4bb3QN4_T52BafJ-47" value="" style="edgeStyle=segmentEdgeStyle;endArrow=classic;html=1;curved=0;rounded=0;endSize=8;startSize=8;entryX=0.5;entryY=0;entryDx=0;entryDy=0;exitX=1;exitY=0.5;exitDx=0;exitDy=0;" edge="1" parent="WIyWlLk6GJQsqaUBKTNV-1" source="w8STW4bb3QN4_T52BafJ-20" target="w8STW4bb3QN4_T52BafJ-22">
          <mxGeometry width="50" height="50" relative="1" as="geometry">
            <mxPoint x="334" y="1276" as="sourcePoint" />
            <mxPoint x="384" y="1226" as="targetPoint" />
          </mxGeometry>
        </mxCell>
        <mxCell id="w8STW4bb3QN4_T52BafJ-48" value="" style="edgeStyle=segmentEdgeStyle;endArrow=classic;html=1;curved=0;rounded=0;endSize=8;startSize=8;entryX=0.5;entryY=1;entryDx=0;entryDy=0;exitX=1;exitY=0.5;exitDx=0;exitDy=0;" edge="1" parent="WIyWlLk6GJQsqaUBKTNV-1" source="w8STW4bb3QN4_T52BafJ-21" target="w8STW4bb3QN4_T52BafJ-22">
          <mxGeometry width="50" height="50" relative="1" as="geometry">
            <mxPoint x="619" y="1245" as="sourcePoint" />
            <mxPoint x="749" y="1270" as="targetPoint" />
          </mxGeometry>
        </mxCell>
      </root>
    </mxGraphModel>
  </diagram>
</mxfile>
